# xmcd
#
# Track frame offsets: 
#        150
#        29411
#        45214
#        71125
#        82944
#
# Disc length: 1482 seconds
#
# Revision: 0
# Processed by: cddbd v1.5.2PL0 Copyright (c) Steve Scherf et al.
# Submitted via: ExactAudioCopy v1.3
#
DISCID=3405c805
DTITLE=Kyle Yardley - More To Come...
DYEAR=2017
DGENRE=Harmonica Blues
TTITLE0=You Changed Your Mind
TTITLE1=Part Time Lover
TTITLE2=Wasting My Time
TTITLE3=Drink A Little Alcohol
TTITLE4=Half Past Six
EXTD=
EXTT0=
EXTT1=
EXTT2=
EXTT3=
EXTT4=
PLAYORDER=
